TITLE "Kraftwerk 1"
PERFORMER "Kraftwerk"
REM GENRE "Electronic"
REM DATE "1970"
REM DISCID 28094704
FILE "Kraftwerk 1.flac" WAVE
  TRACK 01 AUDIO
    TITLE "Ruckzuck"
    INDEX 01 00:00:00
  TRACK 02 AUDIO
    TITLE "Stratovarius"
    INDEX 00 07:48:26
    INDEX 01 07:50:00
  TRACK 03 AUDIO
    TITLE "Megaherz"
    INDEX 00 19:58:06
    INDEX 01 20:00:00
  TRACK 04 AUDIO
    TITLE "Vom Himmel Hoch"
    INDEX 00 29:31:26
    INDEX 01 29:33:00
